<svg id="Layer_1" data-name="Layer 1" xmlns="http://www.w3.org/2000/svg" viewBox="0 0 35 35"><defs><style>.cls-1{fill:#fff;}.cls-2{fill:#58c4f6;}</style></defs><title>icon-social-twitter</title><circle class="cls-1" cx="17.5" cy="17.5" r="14.4"/><path class="cls-2" d="M17.5,0a17.46,17.46,0,1,0,.08,0Zm8.4,13.8v.5A10.94,10.94,0,0,1,15,25.3H14.9a11.26,11.26,0,0,1-6-1.7c.3,0,.6.1.9.1A7.38,7.38,0,0,0,14.6,22,3.87,3.87,0,0,1,11,19.3c.2,0,.5.1.7.1a3.07,3.07,0,0,0,1-.1,3.86,3.86,0,0,1-3.1-3.8h0a3.47,3.47,0,0,0,1.8.5,4,4,0,0,1-1.7-3.2,4.49,4.49,0,0,1,.5-2,11.39,11.39,0,0,0,8,4.1,2.74,2.74,0,0,1-.1-.9A3.91,3.91,0,0,1,22,10.1a4,4,0,0,1,2.8,1.2,10.52,10.52,0,0,0,2.5-.9,3.59,3.59,0,0,1-1.7,2.1,8,8,0,0,0,2.2-.6A8.56,8.56,0,0,1,25.9,13.8Z" transform="translate(0 0)"/></svg>